<?xml version="1.0"?>
<!DOCTYPE svg PUBLIC "-//W3C//DTD SVG 1.0//EN" "http://www.w3.org/TR/2001/REC-SVG-20010904/DTD/svg10.dtd">
<!-- Generated by Graphviz version 2.20.2 (Wed Dec 30 22:24:08 UTC 2009)
     For user: (dank) nick black,,, -->
<!-- Title: G Pages: 1 -->
<svg xmlns="http://www.w3.org/2000/svg" xmlns:svg="http://www.w3.org/2000/svg" width="570pt" height="692pt" viewBox="0.00 0.00 570.00 692.00" preserveAspectRatio="xMidYMid meet" zoomAndPan="magnify" version="1.0" contentScriptType="text/ecmascript" contentStyleType="text/css"><defs><linearGradient id="white" x1="0%" y1="0%" x2="0%" y2="0%"><stop offset="0%" style="stop-color:rgb(255,255,255);stop-opacity:1"/></linearGradient><linearGradient id="aquamarine" x1="0%" y1="0%" x2="100%" y2="100%"><stop offset="0%" style="stop-color:rgb(255,255,255);stop-opacity:1"/><stop offset="100%" style="stop-color:rgb(127,255,212);stop-opacity:1"/></linearGradient><linearGradient id="azure" x1="0%" y1="0%" x2="100%" y2="100%"><stop offset="0%" style="stop-color:rgb(255,255,255);stop-opacity:1"/><stop offset="100%" style="stop-color:rgb(240,255,255);stop-opacity:1"/></linearGradient><linearGradient id="blue" x1="0%" y1="0%" x2="100%" y2="100%"><stop offset="0%" style="stop-color:rgb(255,255,255);stop-opacity:1"/><stop offset="100%" style="stop-color:rgb(0,0,255);stop-opacity:1"/></linearGradient><linearGradient id="blueviolet" x1="0%" y1="0%" x2="100%" y2="100%"><stop offset="0%" style="stop-color:rgb(255,255,255);stop-opacity:1"/><stop offset="100%" style="stop-color:rgb(138,43,226);stop-opacity:1"/></linearGradient><linearGradient id="brown" x1="0%" y1="0%" x2="100%" y2="100%"><stop offset="0%" style="stop-color:rgb(255,255,255);stop-opacity:1"/><stop offset="100%" style="stop-color:rgb(165,42,42);stop-opacity:1"/></linearGradient><linearGradient id="cadetblue" x1="0%" y1="0%" x2="100%" y2="100%"><stop offset="0%" style="stop-color:rgb(255,255,255);stop-opacity:1"/><stop offset="100%" style="stop-color:rgb(95,158,160);stop-opacity:1"/></linearGradient><linearGradient id="chocolate" x1="0%" y1="0%" x2="100%" y2="100%"><stop offset="0%" style="stop-color:rgb(255,255,255);stop-opacity:1"/><stop offset="100%" style="stop-color:rgb(210,105,30);stop-opacity:1"/></linearGradient><linearGradient id="cornflowerblue" x1="0%" y1="0%" x2="100%" y2="100%"><stop offset="0%" style="stop-color:rgb(255,255,255);stop-opacity:1"/><stop offset="100%" style="stop-color:rgb(100,149,237);stop-opacity:1"/></linearGradient><linearGradient id="crimson" x1="0%" y1="0%" x2="100%" y2="100%"><stop offset="0%" style="stop-color:rgb(255,255,255);stop-opacity:1"/><stop offset="100%" style="stop-color:rgb(220,20,60);stop-opacity:1"/></linearGradient><linearGradient id="cyan" x1="0%" y1="0%" x2="100%" y2="100%"><stop offset="0%" style="stop-color:rgb(255,255,255);stop-opacity:1"/><stop offset="100%" style="stop-color:rgb(0,255,255);stop-opacity:1"/></linearGradient><linearGradient id="darkgreen" x1="0%" y1="0%" x2="100%" y2="100%"><stop offset="0%" style="stop-color:rgb(255,255,255);stop-opacity:1"/><stop offset="100%" style="stop-color:rgb(0,100,0);stop-opacity:1"/></linearGradient><linearGradient id="darkorange" x1="0%" y1="0%" x2="100%" y2="100%"><stop offset="0%" style="stop-color:rgb(255,255,255);stop-opacity:1"/><stop offset="100%" style="stop-color:rgb(255,140,0);stop-opacity:1"/></linearGradient><linearGradient id="gold" x1="0%" y1="0%" x2="100%" y2="100%"><stop offset="0%" style="stop-color:rgb(255,255,255);stop-opacity:1"/><stop offset="100%" style="stop-color:rgb(255,215,0);stop-opacity:1"/></linearGradient><linearGradient id="gray" x1="0%" y1="0%" x2="100%" y2="100%"><stop offset="0%" style="stop-color:rgb(255,255,255);stop-opacity:1"/><stop offset="100%" style="stop-color:rgb(192,192,192);stop-opacity:1"/></linearGradient><linearGradient id="greenyellow" x1="0%" y1="0%" x2="100%" y2="100%"><stop offset="0%" style="stop-color:rgb(255,255,255);stop-opacity:1"/><stop offset="100%" style="stop-color:rgb(173,255,47);stop-opacity:1"/></linearGradient><linearGradient id="green" x1="0%" y1="0%" x2="100%" y2="100%"><stop offset="0%" style="stop-color:rgb(255,255,255);stop-opacity:1"/><stop offset="100%" style="stop-color:rgb(0,255,0);stop-opacity:1"/></linearGradient><linearGradient id="grey" x1="0%" y1="0%" x2="100%" y2="100%"><stop offset="0%" style="stop-color:rgb(255,255,255);stop-opacity:1"/><stop offset="100%" style="stop-color:rgb(192,192,192);stop-opacity:1"/></linearGradient><linearGradient id="hotpink" x1="0%" y1="0%" x2="100%" y2="100%"><stop offset="0%" style="stop-color:rgb(255,255,255);stop-opacity:1"/><stop offset="100%" style="stop-color:rgb(255,105,180);stop-opacity:1"/></linearGradient><linearGradient id="indianred" x1="0%" y1="0%" x2="100%" y2="100%"><stop offset="0%" style="stop-color:rgb(255,255,255);stop-opacity:1"/><stop offset="100%" style="stop-color:rgb(205,92,92);stop-opacity:1"/></linearGradient><linearGradient id="indigo" x1="0%" y1="0%" x2="100%" y2="100%"><stop offset="0%" style="stop-color:rgb(255,255,255);stop-opacity:1"/><stop offset="100%" style="stop-color:rgb(75,0,130);stop-opacity:1"/></linearGradient><linearGradient id="lavender" x1="0%" y1="0%" x2="100%" y2="100%"><stop offset="0%" style="stop-color:rgb(255,255,255);stop-opacity:1"/><stop offset="100%" style="stop-color:rgb(230,230,250);stop-opacity:1"/></linearGradient><linearGradient id="lightblue" x1="0%" y1="0%" x2="100%" y2="100%"><stop offset="0%" style="stop-color:rgb(255,255,255);stop-opacity:1"/><stop offset="100%" style="stop-color:rgb(173,216,230);stop-opacity:1"/></linearGradient><linearGradient id="lightgray" x1="0%" y1="0%" x2="100%" y2="100%"><stop offset="0%" style="stop-color:rgb(255,255,255);stop-opacity:1"/><stop offset="100%" style="stop-color:rgb(211,211,211);stop-opacity:1"/></linearGradient><linearGradient id="lightgrey" x1="0%" y1="0%" x2="100%" y2="100%"><stop offset="0%" style="stop-color:rgb(255,255,255);stop-opacity:1"/><stop offset="100%" style="stop-color:rgb(211,211,211);stop-opacity:1"/></linearGradient><linearGradient id="magenta" x1="0%" y1="0%" x2="100%" y2="100%"><stop offset="0%" style="stop-color:rgb(255,255,255);stop-opacity:1"/><stop offset="100%" style="stop-color:rgb(255,0,255);stop-opacity:1"/></linearGradient><linearGradient id="maroon" x1="0%" y1="0%" x2="100%" y2="100%"><stop offset="0%" style="stop-color:rgb(255,255,255);stop-opacity:1"/><stop offset="100%" style="stop-color:rgb(176,48,96);stop-opacity:1"/></linearGradient><linearGradient id="mediumblue" x1="0%" y1="0%" x2="100%" y2="100%"><stop offset="0%" style="stop-color:rgb(255,255,255);stop-opacity:1"/><stop offset="100%" style="stop-color:rgb(0,0,205);stop-opacity:1"/></linearGradient><linearGradient id="mediumpurple" x1="0%" y1="0%" x2="100%" y2="100%"><stop offset="0%" style="stop-color:rgb(255,255,255);stop-opacity:1"/><stop offset="100%" style="stop-color:rgb(147,112,219);stop-opacity:1"/></linearGradient><linearGradient id="orange" x1="0%" y1="0%" x2="100%" y2="100%"><stop offset="0%" style="stop-color:rgb(255,255,255);stop-opacity:1"/><stop offset="100%" style="stop-color:rgb(255,165,0);stop-opacity:1"/></linearGradient><linearGradient id="pink" x1="0%" y1="0%" x2="100%" y2="100%"><stop offset="0%" style="stop-color:rgb(255,255,255);stop-opacity:1"/><stop offset="100%" style="stop-color:rgb(255,192,203);stop-opacity:1"/></linearGradient><linearGradient id="purple" x1="0%" y1="0%" x2="100%" y2="100%"><stop offset="0%" style="stop-color:rgb(255,255,255);stop-opacity:1"/><stop offset="100%" style="stop-color:rgb(160,32,240);stop-opacity:1"/></linearGradient><linearGradient id="red" x1="0%" y1="0%" x2="100%" y2="100%"><stop offset="0%" style="stop-color:rgb(255,255,255);stop-opacity:1"/><stop offset="100%" style="stop-color:rgb(255,0,0);stop-opacity:1"/></linearGradient><linearGradient id="steelblue" x1="0%" y1="0%" x2="100%" y2="100%"><stop offset="0%" style="stop-color:rgb(255,255,255);stop-opacity:1"/><stop offset="100%" style="stop-color:rgb(70,130,180);stop-opacity:1"/></linearGradient><linearGradient id="violet" x1="0%" y1="0%" x2="100%" y2="100%"><stop offset="0%" style="stop-color:rgb(255,255,255);stop-opacity:1"/><stop offset="100%" style="stop-color:rgb(238,130,238);stop-opacity:1"/></linearGradient><linearGradient id="yellow" x1="0%" y1="0%" x2="100%" y2="100%"><stop offset="0%" style="stop-color:rgb(255,255,255);stop-opacity:1"/><stop offset="100%" style="stop-color:rgb(255,255,0);stop-opacity:1"/></linearGradient><linearGradient id="none" x1="0%" y1="0%" x2="100%" y2="100%"><stop offset="0%" style="stop-color:rgb(255,255,255);stop-opacity:1"/><stop offset="100%" style="stop-color:rgb(255,255,255);stop-opacity:1"/></linearGradient></defs>
<g id="graph0" class="graph" transform="scale(1 1) rotate(0) translate(4 688)"><polygon style="fill:white;stroke:white;" points="-4,4 -4,-688 566,-688 566,4 -4,4"/><title content="structured text">G</title><g id="cluster2" class="cluster"><polygon style="fill: black; stroke: none; fill-opacity:0.3" points="8,-16 8,-676 554,-676 554,-16 8,-16" transform="translate(3,3)"/><polygon style="fill:url(#none);stroke:black;;" points="8,-16 8,-676 554,-676 554,-16 8,-16"/></g><g id="cluster3" class="cluster"><polygon style="fill: black; stroke: none; fill-opacity:0.3" points="21,-591 21,-668 541,-668 541,-591 21,-591" transform="translate(3,3)"/><polygon style="fill:url(#cadetblue);stroke:cadetblue;;" points="21,-591 21,-668 541,-668 541,-591 21,-591"/><text text-anchor="middle" x="281" y="-598.9" style="font-size:10px; font-family:Verdana">Kernelspace (Linux epoll, FreeBSD kqueue, etc...)</text></g><g id="cluster5" class="cluster"><polygon style="fill: black; stroke: none; fill-opacity:0.3" points="16,-32 16,-571 546,-571 546,-32 16,-32" transform="translate(3,3)"/><polygon style="fill:url(#red);stroke:red;;" points="16,-32 16,-571 546,-571 546,-32 16,-32"/><text text-anchor="middle" x="281" y="-39.9" style="font-size:10px; font-family:Verdana">Userspace (libtorque-enabled process)</text></g><g id="node3" class="node"><polygon style="fill: black; stroke: none; fill-opacity:0.3" points="85,-660 29.2126,-642 85,-624 140.787,-642 85,-660" transform="translate(3,3)"/><polygon style="fill:url(#steelblue);stroke:black;;" points="85,-660 29.2126,-642 85,-624 140.787,-642 85,-660"/><polyline style="fill:url(#none);stroke:black;;" points="40.6329,-645.685 40.6329,-638.315 "/><polyline style="fill:url(#none);stroke:black;;" points="73.5797,-627.685 96.4203,-627.685 "/><polyline style="fill:url(#none);stroke:black;;" points="129.367,-638.315 129.367,-645.685 "/><polyline style="fill:url(#none);stroke:black;;" points="96.4203,-656.315 73.5797,-656.315 "/><text text-anchor="middle" x="85" y="-637.9" style="font-size:10px; font-family:Verdana">wqueue0</text></g><g id="node6" class="node"><ellipse style="fill: black; stroke: none; fill-opacity:0.3" cx="280" cy="-642" rx="66.9043" ry="18" transform="translate(3,3)"/><ellipse style="fill:url(#greenyellow);stroke:black;;" cx="280" cy="-642" rx="66.9043" ry="18"/><polyline style="fill:url(#none);stroke:black;;" points="324.314,-655.5 235.686,-655.5 "/><polyline style="fill:url(#none);stroke:black;;" points="324.314,-628.5 235.686,-628.5 "/><text text-anchor="middle" x="280" y="-637.9" style="font-size:10px; font-family:Verdana">Devices/IPC</text></g><g id="edge4" class="edge"><polygon style="fill: black; stroke: none; fill-opacity:0.3" points="151,-638.5 141,-642 151,-645.5 151,-638.5" transform="translate(3,3)"/><polygon style="fill: black; stroke: none; fill-opacity:0.3" points="203,-645.5 213,-642 203,-638.5 203,-645.5" transform="translate(3,3)"/><path style="fill: none; stroke: black; stroke-opacity:0.3" d="M151,-642C169,-642 185,-642 203,-642" transform="translate(3,3)"/><polygon style="fill:url(#black);stroke:black;;" points="151,-638.5 141,-642 151,-645.5 151,-638.5"/><polygon style="fill:url(#black);stroke:black;;" points="203,-645.5 213,-642 203,-638.5 203,-645.5"/><path style="fill:none;stroke:black;" d="M151,-642C169,-642 185,-642 203,-642"/></g><g id="node11" class="node"><polygon style="fill: black; stroke: none; fill-opacity:0.3" points="48.2022,-527 115.798,-527 139.871,-563 24.1288,-563 48.2022,-527" transform="translate(3,3)"/><polygon style="fill:url(#mediumpurple);stroke:black;;" points="48.2022,-527 115.798,-527 139.871,-563 24.1288,-563 48.2022,-527"/><polyline style="fill:url(#none);stroke:black;;" points="103.798,-527 122.468,-536.975 "/><polyline style="fill:url(#none);stroke:black;;" points="133.201,-553.025 127.871,-563 "/><polyline style="fill:url(#none);stroke:black;;" points="36.1288,-563 30.7993,-553.025 "/><polyline style="fill:url(#none);stroke:black;;" points="41.5317,-536.975 60.2022,-527 "/><text text-anchor="middle" x="82" y="-540.9" style="font-size:10px; font-family:Verdana">evqueue0</text></g><g id="edge10" class="edge"><polygon style="fill: black; stroke: none; fill-opacity:0.3" points="80.5001,-614 84,-624 87.5001,-614 80.5001,-614" transform="translate(3,3)"/><polygon style="fill: black; stroke: none; fill-opacity:0.3" points="86.5001,-573 83,-563 79.5001,-573 86.5001,-573" transform="translate(3,3)"/><path style="fill: none; stroke: black; stroke-opacity:0.3" d="M83,-614C83.0022,-601.067 82.0022,-586.067 82,-573" transform="translate(3,3)"/><path style="fill: none; stroke: black; stroke-opacity:0.3" d="M85,-614C84.9978,-600.933 83.9978,-585.933 84,-573" transform="translate(3,3)"/><polygon style="fill:url(#purple);stroke:purple;;" points="80.5001,-614 84,-624 87.5001,-614 80.5001,-614"/><polygon style="fill:url(#blue);stroke:blue;;" points="86.5001,-573 83,-563 79.5001,-573 86.5001,-573"/><path style="fill:none;stroke:blue;stroke-width:2;" d="M83,-614C83.0022,-601.067 82.0022,-586.067 82,-573"/><path style="fill:none;stroke:purple;stroke-width:2;" d="M85,-614C84.9978,-600.933 83.9978,-585.933 84,-573"/></g><g id="node4" class="node"><polygon style="fill: black; stroke: none; fill-opacity:0.3" points="476,-660 419.02,-642 476,-624 532.98,-642 476,-660" transform="translate(3,3)"/><polygon style="fill:url(#steelblue);stroke:black;;" points="476,-660 419.02,-642 476,-624 532.98,-642 476,-660"/><polyline style="fill:url(#none);stroke:black;;" points="430.462,-645.615 430.462,-638.385 "/><polyline style="fill:url(#none);stroke:black;;" points="464.557,-627.615 487.443,-627.615 "/><polyline style="fill:url(#none);stroke:black;;" points="521.538,-638.385 521.538,-645.615 "/><polyline style="fill:url(#none);stroke:black;;" points="487.443,-656.385 464.557,-656.385 "/><text text-anchor="middle" x="476" y="-637.9" style="font-size:10px; font-family:Verdana">wqueueN</text></g><g id="node10" class="node"><polygon style="fill: black; stroke: none; fill-opacity:0.3" points="443.099,-527 512.901,-527 537.76,-563 418.24,-563 443.099,-527" transform="translate(3,3)"/><polygon style="fill:url(#mediumpurple);stroke:black;;" points="443.099,-527 512.901,-527 537.76,-563 418.24,-563 443.099,-527"/><polyline style="fill:url(#none);stroke:black;;" points="500.901,-527 519.719,-536.875 "/><polyline style="fill:url(#none);stroke:black;;" points="530.941,-553.125 525.76,-563 "/><polyline style="fill:url(#none);stroke:black;;" points="430.24,-563 425.059,-553.125 "/><polyline style="fill:url(#none);stroke:black;;" points="436.281,-536.875 455.099,-527 "/><text text-anchor="middle" x="478" y="-540.9" style="font-size:10px; font-family:Verdana">evqueueN</text></g><g id="edge12" class="edge"><polygon style="fill: black; stroke: none; fill-opacity:0.3" points="472.5,-614 476,-624 479.5,-614 472.5,-614" transform="translate(3,3)"/><polygon style="fill: black; stroke: none; fill-opacity:0.3" points="480.488,-573.299 478,-563 473.522,-572.602 480.488,-573.299" transform="translate(3,3)"/><path style="fill: none; stroke: black; stroke-opacity:0.3" d="M475.003,-613.923C476,-601 476,-586 476,-573" transform="translate(3,3)"/><path style="fill: none; stroke: black; stroke-opacity:0.3" d="M476.997,-614.077C478,-601 478,-586 478,-573" transform="translate(3,3)"/><polygon style="fill:url(#purple);stroke:purple;;" points="472.5,-614 476,-624 479.5,-614 472.5,-614"/><polygon style="fill:url(#blue);stroke:blue;;" points="480.488,-573.299 478,-563 473.522,-572.602 480.488,-573.299"/><path style="fill:none;stroke:blue;stroke-width:2;" d="M475.003,-613.923C476,-601 476,-586 476,-573"/><path style="fill:none;stroke:purple;stroke-width:2;" d="M476.997,-614.077C478,-601 478,-586 478,-573"/></g><g id="edge6" class="edge"><polygon style="fill: black; stroke: none; fill-opacity:0.3" points="357,-638.5 347,-642 357,-645.5 357,-638.5" transform="translate(3,3)"/><polygon style="fill: black; stroke: none; fill-opacity:0.3" points="409,-645.5 419,-642 409,-638.5 409,-645.5" transform="translate(3,3)"/><path style="fill: none; stroke: black; stroke-opacity:0.3" d="M357,-642C375,-642 391,-642 409,-642" transform="translate(3,3)"/><polygon style="fill:url(#black);stroke:black;;" points="357,-638.5 347,-642 357,-645.5 357,-638.5"/><polygon style="fill:url(#black);stroke:black;;" points="409,-645.5 419,-642 409,-638.5 409,-645.5"/><path style="fill:none;stroke:black;" d="M357,-642C375,-642 391,-642 409,-642"/></g><g id="node20" class="node"><polygon style="fill: black; stroke: none; fill-opacity:0.3" points="354,-453 354,-489 492,-489 492,-453 354,-453" transform="translate(3,3)"/><polygon style="fill:url(#none);stroke:black;;" points="354,-453 354,-489 492,-489 492,-453 354,-453"/><polyline style="fill:url(#none);stroke:black;;" points="388,-453 388,-489 "/><polyline style="fill:url(#none);stroke:black;;" points="422,-453 422,-489 "/><polyline style="fill:url(#none);stroke:black;;" points="456,-453 456,-489 "/><text text-anchor="middle" x="371" y="-472.4" style="font-size:10px; font-family:Verdana">T0</text><text text-anchor="middle" x="405" y="-472.4" style="font-size:10px; font-family:Verdana">T1</text><text text-anchor="middle" x="439" y="-472.4" style="font-size:10px; font-family:Verdana">T2</text><text text-anchor="middle" x="474" y="-472.4" style="font-size:10px; font-family:Verdana">TN</text></g><g id="edge29" class="edge"><polygon style="fill: black; stroke: none; fill-opacity:0.3" points="397.831,-492.951 388,-489 393.221,-498.219 397.831,-492.951" transform="translate(3,3)"/><path style="fill: none; stroke: black; stroke-opacity:0.3" d="M444,-527C430,-518 411,-508 396,-496" transform="translate(3,3)"/><polygon style="fill:url(#blue);stroke:blue;;" points="397.831,-492.951 388,-489 393.221,-498.219 397.831,-492.951"/><path style="fill:none;stroke:blue;" d="M444,-527C430,-518 411,-508 396,-496"/></g><g id="edge31" class="edge"><polygon style="fill: black; stroke: none; fill-opacity:0.3" points="431.546,-493.596 422,-489 426.596,-498.546 431.546,-493.596" transform="translate(3,3)"/><path style="fill: none; stroke: black; stroke-opacity:0.3" d="M461,-527C451,-518 440,-507 429,-496" transform="translate(3,3)"/><polygon style="fill:url(#blue);stroke:blue;;" points="431.546,-493.596 422,-489 426.596,-498.546 431.546,-493.596"/><path style="fill:none;stroke:blue;" d="M461,-527C451,-518 440,-507 429,-496"/></g><g id="edge33" class="edge"><polygon style="fill: black; stroke: none; fill-opacity:0.3" points="456.916,-496.042 449,-489 450.797,-499.441 456.916,-496.042" transform="translate(3,3)"/><path style="fill: none; stroke: black; stroke-opacity:0.3" d="M469,-527C464,-518 459,-508 454,-498" transform="translate(3,3)"/><polygon style="fill:url(#blue);stroke:blue;;" points="456.916,-496.042 449,-489 450.797,-499.441 456.916,-496.042"/><path style="fill:none;stroke:blue;" d="M469,-527C464,-518 459,-508 454,-498"/></g><g id="edge35" class="edge"><polygon style="fill: black; stroke: none; fill-opacity:0.3" points="479.478,-498.602 475,-489 472.512,-499.299 479.478,-498.602" transform="translate(3,3)"/><path style="fill: none; stroke: black; stroke-opacity:0.3" d="M477,-527C476,-518 476,-509 476,-499" transform="translate(3,3)"/><polygon style="fill:url(#blue);stroke:blue;;" points="479.478,-498.602 475,-489 472.512,-499.299 479.478,-498.602"/><path style="fill:none;stroke:blue;" d="M477,-527C476,-518 476,-509 476,-499"/></g><g id="edge14" class="edge"><polygon style="fill: black; stroke: none; fill-opacity:0.3" points="139,-541.5 129,-545 139,-548.5 139,-541.5" transform="translate(3,3)"/><polygon style="fill: black; stroke: none; fill-opacity:0.3" points="421,-548.5 431,-545 421,-541.5 421,-548.5" transform="translate(3,3)"/><path style="fill: none; stroke: black; stroke-opacity:0.3" d="M139,-545C213,-545 345,-545 421,-545" transform="translate(3,3)"/><polygon style="fill:url(#maroon);stroke:maroon;;" points="139,-541.5 129,-545 139,-548.5 139,-541.5"/><polygon style="fill:url(#maroon);stroke:maroon;;" points="421,-548.5 431,-545 421,-541.5 421,-548.5"/><path style="fill:none;stroke:maroon;stroke-dasharray:1,5;" d="M139,-545C213,-545 345,-545 421,-545"/><text text-anchor="middle" x="279" y="-548.9" style="font-size:10px; font-family:Verdana">About sqrt(cpus) evqueues, usually</text></g><g id="node19" class="node"><polygon style="fill: black; stroke: none; fill-opacity:0.3" points="68,-453 68,-489 206,-489 206,-453 68,-453" transform="translate(3,3)"/><polygon style="fill:url(#none);stroke:black;;" points="68,-453 68,-489 206,-489 206,-453 68,-453"/><polyline style="fill:url(#none);stroke:black;;" points="102,-453 102,-489 "/><polyline style="fill:url(#none);stroke:black;;" points="136,-453 136,-489 "/><polyline style="fill:url(#none);stroke:black;;" points="170,-453 170,-489 "/><text text-anchor="middle" x="85" y="-472.4" style="font-size:10px; font-family:Verdana">T0</text><text text-anchor="middle" x="119" y="-472.4" style="font-size:10px; font-family:Verdana">T1</text><text text-anchor="middle" x="153" y="-472.4" style="font-size:10px; font-family:Verdana">T2</text><text text-anchor="middle" x="188" y="-472.4" style="font-size:10px; font-family:Verdana">TN</text></g><g id="edge27" class="edge"><polygon style="fill: black; stroke: none; fill-opacity:0.3" points="164.1,-497.8 170,-489 159.9,-492.2 164.1,-497.8" transform="translate(3,3)"/><path style="fill: none; stroke: black; stroke-opacity:0.3" d="M112,-527C127,-518 146,-507 162,-495" transform="translate(3,3)"/><polygon style="fill:url(#blue);stroke:blue;;" points="164.1,-497.8 170,-489 159.9,-492.2 164.1,-497.8"/><path style="fill:none;stroke:blue;" d="M112,-527C127,-518 146,-507 162,-495"/></g><g id="edge21" class="edge"><polygon style="fill: black; stroke: none; fill-opacity:0.3" points="87.5001,-499 84,-489 80.5001,-499 87.5001,-499" transform="translate(3,3)"/><path style="fill: none; stroke: black; stroke-opacity:0.3" d="M83,-527C84,-518 84,-509 84,-499" transform="translate(3,3)"/><polygon style="fill:url(#blue);stroke:blue;;" points="87.5001,-499 84,-489 80.5001,-499 87.5001,-499"/><path style="fill:none;stroke:blue;" d="M83,-527C84,-518 84,-509 84,-499"/></g><g id="edge23" class="edge"><polygon style="fill: black; stroke: none; fill-opacity:0.3" points="108.203,-499.441 110,-489 102.084,-496.042 108.203,-499.441" transform="translate(3,3)"/><path style="fill: none; stroke: black; stroke-opacity:0.3" d="M91,-527C96,-518 101,-508 105,-498" transform="translate(3,3)"/><polygon style="fill:url(#blue);stroke:blue;;" points="108.203,-499.441 110,-489 102.084,-496.042 108.203,-499.441"/><path style="fill:none;stroke:blue;" d="M91,-527C96,-518 101,-508 105,-498"/></g><g id="edge25" class="edge"><polygon style="fill: black; stroke: none; fill-opacity:0.3" points="131.404,-498.546 136,-489 126.454,-493.596 131.404,-498.546" transform="translate(3,3)"/><path style="fill: none; stroke: black; stroke-opacity:0.3" d="M99,-527C107,-518 118,-507 129,-496" transform="translate(3,3)"/><polygon style="fill:url(#blue);stroke:blue;;" points="131.404,-498.546 136,-489 126.454,-493.596 131.404,-498.546"/><path style="fill:none;stroke:blue;" d="M99,-527C107,-518 118,-507 129,-496"/></g><g id="node15" class="node"><polygon style="fill: black; stroke: none; fill-opacity:0.3" points="283,-101 229,-101 229,-65 283,-65 283,-101" transform="translate(3,3)"/><polygon style="fill:url(#green);stroke:black;;" points="283,-101 229,-101 229,-65 283,-65 283,-101"/><text text-anchor="middle" x="256" y="-78.9" style="font-size:10px; font-family:Verdana">API</text></g><g id="edge18" class="edge"><polygon style="fill: black; stroke: none; fill-opacity:0.3" points="503.596,-517.454 499,-527 508.546,-522.404 503.596,-517.454" transform="translate(3,3)"/><path style="fill: none; stroke: black; stroke-opacity:0.3" d="M283,-85C352,-90 529,-109 529,-160 529,-471 529,-471 529,-471 529,-489 518,-506 506,-520" transform="translate(3,3)"/><polygon style="fill:url(#purple);stroke:purple;;" points="503.596,-517.454 499,-527 508.546,-522.404 503.596,-517.454"/><path style="fill:none;stroke:purple;stroke-width:2;" d="M283,-85C352,-90 529,-109 529,-160 529,-471 529,-471 529,-471 529,-489 518,-506 506,-520"/></g><g id="edge16" class="edge"><polygon style="fill: black; stroke: none; fill-opacity:0.3" points="51.454,-522.404 61,-527 56.4038,-517.454 51.454,-522.404" transform="translate(3,3)"/><path style="fill: none; stroke: black; stroke-opacity:0.3" d="M229,-86C169,-95 31,-118 31,-160 31,-471 31,-471 31,-471 31,-489 42,-506 54,-520" transform="translate(3,3)"/><polygon style="fill:url(#purple);stroke:purple;;" points="51.454,-522.404 61,-527 56.4038,-517.454 51.454,-522.404"/><path style="fill:none;stroke:purple;stroke-width:2;" d="M229,-86C169,-95 31,-118 31,-160 31,-471 31,-471 31,-471 31,-489 42,-506 54,-520"/></g><g id="node31" class="node"><polygon style="fill: black; stroke: none; fill-opacity:0.3" points="492,-415 400,-415 400,-373 492,-373 492,-415" transform="translate(3,3)"/><polygon style="fill:url(#lightgreen);stroke:black;;" points="492,-415 400,-415 400,-373 492,-373 492,-415"/><text text-anchor="middle" x="446" y="-398.4" style="font-size:10px; font-family:Verdana">sig monads</text><text text-anchor="middle" x="446" y="-381.4" style="font-size:10px; font-family:Verdana">(array)</text></g><g id="edge38" class="edge"><polygon style="fill: black; stroke: none; fill-opacity:0.3" points="390.881,-411.393 400,-406 389.508,-404.529 390.881,-411.393" transform="translate(3,3)"/><path style="fill: none; stroke: black; stroke-opacity:0.3" d="M206,-454C261,-440 338,-421 390,-408" transform="translate(3,3)"/><polygon style="fill:url(#lightblue);stroke:lightblue;;" points="390.881,-411.393 400,-406 389.508,-404.529 390.881,-411.393"/><path style="fill:none;stroke:lightblue;stroke-width:2;" d="M206,-454C261,-440 338,-421 390,-408"/></g><g id="node33" class="node"><polygon style="fill: black; stroke: none; fill-opacity:0.3" points="328,-415 242,-415 242,-373 328,-373 328,-415" transform="translate(3,3)"/><polygon style="fill:url(#lightgreen);stroke:black;;" points="328,-415 242,-415 242,-373 328,-373 328,-415"/><text text-anchor="middle" x="285" y="-398.4" style="font-size:10px; font-family:Verdana">fd monads</text><text text-anchor="middle" x="285" y="-381.4" style="font-size:10px; font-family:Verdana">(array)</text></g><g id="edge40" class="edge"><polygon style="fill: black; stroke: none; fill-opacity:0.3" points="236.958,-422.916 244,-415 233.559,-416.797 236.958,-422.916" transform="translate(3,3)"/><path style="fill: none; stroke: black; stroke-opacity:0.3" d="M172,-453C190,-443 215,-431 235,-420" transform="translate(3,3)"/><polygon style="fill:url(#lightblue);stroke:lightblue;;" points="236.958,-422.916 244,-415 233.559,-416.797 236.958,-422.916"/><path style="fill:none;stroke:lightblue;stroke-width:2;" d="M172,-453C190,-443 215,-431 235,-420"/></g><g id="node35" class="node"><polygon style="fill: black; stroke: none; fill-opacity:0.3" points="206,-415 68,-415 68,-373 206,-373 206,-415" transform="translate(3,3)"/><polygon style="fill:url(#lightgreen);stroke:black;;" points="206,-415 68,-415 68,-373 206,-373 206,-415"/><text text-anchor="middle" x="137" y="-398.4" style="font-size:10px; font-family:Verdana">timer monads</text><text text-anchor="middle" x="137" y="-381.4" style="font-size:10px; font-family:Verdana">(hwheel or array)</text></g><g id="edge42" class="edge"><polygon style="fill: black; stroke: none; fill-opacity:0.3" points="140.5,-425 137,-415 133.5,-425 140.5,-425" transform="translate(3,3)"/><path style="fill: none; stroke: black; stroke-opacity:0.3" d="M137,-453C137,-445 137,-435 137,-425" transform="translate(3,3)"/><polygon style="fill:url(#lightblue);stroke:lightblue;;" points="140.5,-425 137,-415 133.5,-425 140.5,-425"/><path style="fill:none;stroke:lightblue;stroke-width:2;" d="M137,-453C137,-445 137,-435 137,-425"/></g><g id="edge44" class="edge"><polygon style="fill: black; stroke: none; fill-opacity:0.3" points="440.479,-425.584 440,-415 433.774,-423.573 440.479,-425.584" transform="translate(3,3)"/><path style="fill: none; stroke: black; stroke-opacity:0.3" d="M428,-453C430,-445 434,-434 437,-425" transform="translate(3,3)"/><polygon style="fill:url(#lightblue);stroke:lightblue;;" points="440.479,-425.584 440,-415 433.774,-423.573 440.479,-425.584"/><path style="fill:none;stroke:lightblue;stroke-width:2;" d="M428,-453C430,-445 434,-434 437,-425"/></g><g id="edge46" class="edge"><polygon style="fill: black; stroke: none; fill-opacity:0.3" points="333.441,-416.797 323,-415 330.042,-422.916 333.441,-416.797" transform="translate(3,3)"/><path style="fill: none; stroke: black; stroke-opacity:0.3" d="M391,-453C374,-444 351,-431 332,-420" transform="translate(3,3)"/><polygon style="fill:url(#lightblue);stroke:lightblue;;" points="333.441,-416.797 323,-415 330.042,-422.916 333.441,-416.797"/><path style="fill:none;stroke:lightblue;stroke-width:2;" d="M391,-453C374,-444 351,-431 332,-420"/></g><g id="edge48" class="edge"><polygon style="fill: black; stroke: none; fill-opacity:0.3" points="216.584,-412.521 206,-413 214.573,-419.226 216.584,-412.521" transform="translate(3,3)"/><path style="fill: none; stroke: black; stroke-opacity:0.3" d="M356,-453C314,-442 260,-427 216,-416" transform="translate(3,3)"/><polygon style="fill:url(#lightblue);stroke:lightblue;;" points="216.584,-412.521 206,-413 214.573,-419.226 216.584,-412.521"/><path style="fill:none;stroke:lightblue;stroke-width:2;" d="M356,-453C314,-442 260,-427 216,-416"/></g><g id="edge50" class="edge"><polygon style="fill: black; stroke: none; fill-opacity:0.3" points="339,-390.5 329,-394 339,-397.5 339,-390.5" transform="translate(3,3)"/><path style="fill: none; stroke: black; stroke-opacity:0.3" d="M399,-394C380,-394 359,-394 339,-394" transform="translate(3,3)"/><polygon style="fill:url(#lightblue);stroke:lightblue;;" points="339,-390.5 329,-394 339,-397.5 339,-390.5"/><path style="fill:none;stroke:lightblue;" d="M399,-394C380,-394 359,-394 339,-394"/><text text-anchor="middle" x="364" y="-397.9" style="font-size:10px; font-family:Verdana">AIO</text></g><g id="node49" class="node"><polygon style="fill: black; stroke: none; fill-opacity:0.3" points="360,-255 206,-255 206,-219 360,-219 360,-255" transform="translate(3,3)"/><polygon style="fill:url(#orange);stroke:black;;" points="360,-255 206,-255 206,-219 360,-219 360,-255"/><text text-anchor="middle" x="283" y="-232.9" style="font-size:10px; font-family:Verdana">Registered callbacks</text></g><g id="edge65" class="edge"><polygon style="fill: black; stroke: none; fill-opacity:0.3" points="370.584,-251.521 360,-252 368.573,-258.226 370.584,-251.521" transform="translate(3,3)"/><path style="fill: none; stroke: black; stroke-opacity:0.3" d="M456,-373C465,-351 475,-316 458,-293 446,-277 408,-264 370,-255" transform="translate(3,3)"/><polygon style="fill:url(#green);stroke:green;;" points="370.584,-251.521 360,-252 368.573,-258.226 370.584,-251.521"/><path style="fill:none;stroke:green;" d="M456,-373C465,-351 475,-316 458,-293 446,-277 408,-264 370,-255"/></g><g id="node41" class="node"><polygon style="fill: black; stroke: none; fill-opacity:0.3" points="440,-335 320,-335 320,-293 440,-293 440,-335" transform="translate(3,3)"/><polygon style="fill:url(#lightgreen);stroke:black;;" points="440,-335 320,-335 320,-293 440,-293 440,-335"/><text text-anchor="middle" x="380" y="-318.4" style="font-size:10px; font-family:Verdana">Buffering</text><text text-anchor="middle" x="380" y="-301.4" style="font-size:10px; font-family:Verdana">(arch-adaptive)</text></g><g id="edge52" class="edge"><polygon style="fill: black; stroke: none; fill-opacity:0.3" points="349.779,-344.219 355,-335 345.169,-338.951 349.779,-344.219" transform="translate(3,3)"/><path style="fill: none; stroke: black; stroke-opacity:0.3" d="M310,-373C321,-363 335,-352 347,-342" transform="translate(3,3)"/><polygon style="fill:url(#lightblue);stroke:lightblue;;" points="349.779,-344.219 355,-335 345.169,-338.951 349.779,-344.219"/><path style="fill:none;stroke:lightblue;" d="M310,-373C321,-363 335,-352 347,-342"/></g><g id="node43" class="node"><polygon style="fill: black; stroke: none; fill-opacity:0.3" points="246,-335 116,-335 116,-293 246,-293 246,-335" transform="translate(3,3)"/><polygon style="fill:url(#lightgreen);stroke:black;;" points="246,-335 116,-335 116,-293 246,-293 246,-335"/><text text-anchor="middle" x="181" y="-318.4" style="font-size:10px; font-family:Verdana">DNS, SSL/TLS</text><text text-anchor="middle" x="181" y="-301.4" style="font-size:10px; font-family:Verdana">(adns, OpenSSL)</text></g><g id="edge54" class="edge"><polygon style="fill: black; stroke: none; fill-opacity:0.3" points="219.1,-338.2 209,-335 214.9,-343.8 219.1,-338.2" transform="translate(3,3)"/><path style="fill: none; stroke: black; stroke-opacity:0.3" d="M258,-373C246,-363 230,-352 217,-341" transform="translate(3,3)"/><polygon style="fill:url(#lightblue);stroke:lightblue;;" points="219.1,-338.2 209,-335 214.9,-343.8 219.1,-338.2"/><path style="fill:none;stroke:lightblue;" d="M258,-373C246,-363 230,-352 217,-341"/></g><g id="edge67" class="edge"><polygon style="fill: black; stroke: none; fill-opacity:0.3" points="286.5,-265 283,-255 279.5,-265 286.5,-265" transform="translate(3,3)"/><path style="fill: none; stroke: black; stroke-opacity:0.3" d="M285,-373C284,-345 284,-297 283,-265" transform="translate(3,3)"/><polygon style="fill:url(#green);stroke:green;;" points="286.5,-265 283,-255 279.5,-265 286.5,-265"/><path style="fill:none;stroke:green;" d="M285,-373C284,-345 284,-297 283,-265"/></g><g id="edge56" class="edge"><polygon style="fill: black; stroke: none; fill-opacity:0.3" points="168.203,-345.441 170,-335 162.084,-342.042 168.203,-345.441" transform="translate(3,3)"/><path style="fill: none; stroke: black; stroke-opacity:0.3" d="M149,-373C154,-364 159,-353 165,-344" transform="translate(3,3)"/><polygon style="fill:url(#lightblue);stroke:lightblue;;" points="168.203,-345.441 170,-335 162.084,-342.042 168.203,-345.441"/><path style="fill:none;stroke:lightblue;" d="M149,-373C154,-364 159,-353 165,-344"/></g><g id="edge69" class="edge"><polygon style="fill: black; stroke: none; fill-opacity:0.3" points="196.881,-256.393 206,-251 195.508,-249.529 196.881,-256.393" transform="translate(3,3)"/><path style="fill: none; stroke: black; stroke-opacity:0.3" d="M118,-373C101,-351 80,-317 98,-293 110,-276 154,-262 196,-253" transform="translate(3,3)"/><polygon style="fill:url(#green);stroke:green;;" points="196.881,-256.393 206,-251 195.508,-249.529 196.881,-256.393"/><path style="fill:none;stroke:green;" d="M118,-373C101,-351 80,-317 98,-293 110,-276 154,-262 196,-253"/></g><g id="edge58" class="edge"><polygon style="fill: black; stroke: none; fill-opacity:0.3" points="293.492,-85.5292 283,-87 292.119,-92.3933 293.492,-85.5292" transform="translate(3,3)"/><path style="fill: none; stroke: black; stroke-opacity:0.3" d="M400,-293C430,-258 481,-187 445,-139 426,-114 343,-96 293,-89" transform="translate(3,3)"/><polygon style="fill:url(#black);stroke:black;;" points="293.492,-85.5292 283,-87 292.119,-92.3933 293.492,-85.5292"/><path style="fill:none;stroke:black;" d="M400,-293C430,-258 481,-187 445,-139 426,-114 343,-96 293,-89"/></g><g id="edge71" class="edge"><polygon style="fill: black; stroke: none; fill-opacity:0.3" points="316.1,-258.2 306,-255 311.9,-263.8 316.1,-258.2" transform="translate(3,3)"/><path style="fill: none; stroke: black; stroke-opacity:0.3" d="M353,-293C341,-283 326,-271 314,-261" transform="translate(3,3)"/><polygon style="fill:url(#green);stroke:green;;" points="316.1,-258.2 306,-255 311.9,-263.8 316.1,-258.2"/><path style="fill:none;stroke:green;" d="M353,-293C341,-283 326,-271 314,-261"/></g><g id="edge61" class="edge"><polygon style="fill: black; stroke: none; fill-opacity:0.3" points="241.203,-111.441 243,-101 235.084,-108.042 241.203,-111.441" transform="translate(3,3)"/><path style="fill: none; stroke: black; stroke-opacity:0.3" d="M180,-293C180,-273 181,-244 188,-219 198,-179 221,-136 238,-110" transform="translate(3,3)"/><polygon style="fill:url(#black);stroke:black;;" points="241.203,-111.441 243,-101 235.084,-108.042 241.203,-111.441"/><path style="fill:none;stroke:black;" d="M180,-293C180,-273 181,-244 188,-219 198,-179 221,-136 238,-110"/></g><g id="edge73" class="edge"><polygon style="fill: black; stroke: none; fill-opacity:0.3" points="253.1,-263.8 259,-255 248.9,-258.2 253.1,-263.8" transform="translate(3,3)"/><path style="fill: none; stroke: black; stroke-opacity:0.3" d="M209,-293C222,-283 238,-271 251,-261" transform="translate(3,3)"/><polygon style="fill:url(#green);stroke:green;;" points="253.1,-263.8 259,-255 248.9,-258.2 253.1,-263.8"/><path style="fill:none;stroke:green;" d="M209,-293C222,-283 238,-271 251,-261"/></g><g id="node48" class="node"><polygon style="fill: black; stroke: none; fill-opacity:0.3" points="261,-139 261,-181 427,-181 427,-139 261,-139" transform="translate(3,3)"/><polygon style="fill:url(#none);stroke:black;;" points="261,-139 261,-181 427,-181 427,-139 261,-139"/><polyline style="fill:url(#none);stroke:black;;" points="323,-139 323,-181 "/><polyline style="fill:url(#none);stroke:black;;" points="357,-139 357,-181 "/><polyline style="fill:url(#none);stroke:black;;" points="391,-139 391,-181 "/><text text-anchor="middle" x="292" y="-164.4" style="font-size:10px; font-family:Verdana">Main</text><text text-anchor="middle" x="292" y="-147.4" style="font-size:10px; font-family:Verdana">thread</text><text text-anchor="middle" x="340" y="-164.4" style="font-size:10px; font-family:Verdana">T1</text><text text-anchor="middle" x="374" y="-164.4" style="font-size:10px; font-family:Verdana">T2</text><text text-anchor="middle" x="409" y="-164.4" style="font-size:10px; font-family:Verdana">TN</text></g><g id="edge77" class="edge"><polygon style="fill: black; stroke: none; fill-opacity:0.3" points="286.831,-104.951 277,-101 282.221,-110.219 286.831,-104.951" transform="translate(3,3)"/><path style="fill: none; stroke: black; stroke-opacity:0.3" d="M320,-139C309,-129 296,-118 285,-108" transform="translate(3,3)"/><polygon style="fill:url(#black);stroke:black;;" points="286.831,-104.951 277,-101 282.221,-110.219 286.831,-104.951"/><path style="fill:none;stroke:black;" d="M320,-139C309,-129 296,-118 285,-108"/></g><g id="edge75" class="edge"><polygon style="fill: black; stroke: none; fill-opacity:0.3" points="249.479,-111.584 249,-101 242.774,-109.573 249.479,-111.584" transform="translate(3,3)"/><path style="fill: none; stroke: black; stroke-opacity:0.3" d="M266,-219C257,-209 247,-195 243,-181 235,-158 240,-131 246,-111" transform="translate(3,3)"/><polygon style="fill:url(#black);stroke:black;;" points="249.479,-111.584 249,-101 242.774,-109.573 249.479,-111.584"/><path style="fill:none;stroke:black;" d="M266,-219C257,-209 247,-195 243,-181 235,-158 240,-131 246,-111"/></g><g id="edge63" class="edge"><polygon style="fill: black; stroke: none; fill-opacity:0.3" points="300.951,-209.169 297,-219 306.219,-213.779 300.951,-209.169" transform="translate(3,3)"/><polygon style="fill: black; stroke: none; fill-opacity:0.3" points="323.8,-191.1 327,-181 318.2,-186.9 323.8,-191.1" transform="translate(3,3)"/><path style="fill: none; stroke: black; stroke-opacity:0.3" d="M304,-211C309,-204 315,-196 321,-189" transform="translate(3,3)"/><polygon style="fill:url(#darkgreen);stroke:darkgreen;;" points="300.951,-209.169 297,-219 306.219,-213.779 300.951,-209.169"/><polygon style="fill:url(#darkgreen);stroke:darkgreen;;" points="323.8,-191.1 327,-181 318.2,-186.9 323.8,-191.1"/><path style="fill:none;stroke:darkgreen;" d="M304,-211C309,-204 315,-196 321,-189"/></g></g>
</svg>
